<svg width="25" height="51" viewBox="0 0 25 51" fill="none" xmlns="http://www.w3.org/2000/svg">
<path d="M16.863 1.38304C15.6521 2.00034 14.4412 2.61763 13.2302 3.23493C12.3407 3.6884 11.0277 4.08013 10.3122 4.7739C9.19208 5.85988 8.3721 6.79122 7.4489 8.08481C6.17147 9.87475 5.96458 11.7412 5.08497 13.6867C4.68514 14.571 4.55881 15.8046 4.3918 16.7656C4.24142 17.6309 3.9214 18.793 4.02518 19.678C4.2677 21.7462 5.16357 23.8278 6.10029 25.6653C7.75435 28.91 9.94216 32.0454 13.6064 33.1267C14.8425 33.4914 16.2348 33.4067 17.3844 32.8206C18.5949 32.2035 20.254 31.6613 21.2097 30.6906C22.0895 29.797 22.5345 28.6861 23.3179 27.7647C24.0387 26.9167 23.8275 25.6815 24.083 24.7262C24.3776 23.625 23.3176 22.2159 22.8474 21.2935C22.219 20.0609 21.5269 19.1232 20.3657 18.3418C18.497 17.0845 15.6735 17.4882 13.5988 17.6774C13.0595 17.7266 11.9698 18.2561 11.4639 18.4829C10.7681 18.7949 10.0678 19.1629 9.40263 19.5337C7.99212 20.3198 7.05044 22.0896 6.29803 23.4304C4.47311 26.6826 3.97187 31.2006 4.80912 34.8344C5.88928 39.5224 7.84956 43.6233 10.0334 47.9072C10.2764 48.3839 10.6962 48.8756 11.109 49.2101C11.2832 49.3513 11.3676 49.6165 11.4671 49.8118C11.542 49.9587 11.3307 49.4976 11.2026 49.3938C9.89375 48.3329 8.35717 48.3423 6.80643 47.9323C5.42848 47.568 4.08884 47.4672 2.75235 46.9906C2.31701 46.8354 1.86614 46.6777 1.42741 46.5604C0.568718 46.3307 1.21818 46.5187 1.70392 46.548C2.91438 46.621 4.44975 47.0138 5.60354 47.3884C6.78899 47.7734 8.22501 48.1026 9.26143 48.7635C9.66539 49.0211 11.1307 49.6354 11.5208 49.4631C12.1169 49.1997 11.9486 47.2012 12.1639 46.5382C12.6676 44.9871 13.4012 43.5201 13.952 41.9756C14.1954 41.293 14.7114 40.3253 15.1333 39.7535" stroke="black" stroke-linecap="round"/>
</svg>
