<svg width="21" height="19" viewBox="0 0 21 19" fill="none" xmlns="http://www.w3.org/2000/svg">
<path d="M12.2364 18.1975C11.9643 18.464 11.6938 18.7313 11.4267 19C11.4001 18.9797 11.3737 18.9596 11.3471 18.9391C7.01912 15.6245 1.08076 12.5831 0.10515 6.43727C-0.231512 4.31762 0.201026 1.76196 1.97461 0.743176C3.71128 -0.254588 5.88448 0.691255 7.42886 2.00071C8.75181 3.12242 9.87486 4.51194 10.7206 6.0733C11.4413 4.74173 12.1709 3.39754 13.1545 2.27401C14.1382 1.15065 15.4134 0.251239 16.8406 0.04229C17.8051 -0.0988376 18.8468 0.10554 19.5939 0.772057C20.0684 1.19507 20.3995 1.77841 20.622 2.39429C21.1716 3.91617 21.0811 5.64078 20.6126 7.19336C20.1442 8.74595 19.3204 10.1488 18.4189 11.4658C16.6882 13.9936 14.4045 16.0745 12.2364 18.1975" fill="#8F7ABC"/>
</svg>
