<svg width="21" height="20" viewBox="0 0 21 20" fill="none" xmlns="http://www.w3.org/2000/svg">
<path d="M14.6666 8.3335C15.7938 8.3335 16.8748 8.78126 17.6718 9.57829C18.4688 10.3753 18.9166 11.4563 18.9166 12.5835V17.8752H18.7499V12.5835C18.7499 11.5005 18.3197 10.4619 17.5539 9.69614C16.7882 8.93037 15.7496 8.50016 14.6666 8.50016C13.5836 8.50016 12.545 8.93037 11.7792 9.69614C11.0135 10.4619 10.5833 11.5005 10.5833 12.5835V17.8752H10.4166V12.5835C10.4166 11.4563 10.8644 10.3753 11.6614 9.57829C12.4584 8.78126 13.5394 8.3335 14.6666 8.3335ZM2.24992 9.37516V17.8752H2.08325V9.37516H2.24992ZM2.24992 2.16683C2.24992 2.21285 2.21261 2.25016 2.16659 2.25016C2.12056 2.25016 2.08325 2.21285 2.08325 2.16683C2.08325 2.12081 2.12056 2.0835 2.16659 2.0835C2.21261 2.0835 2.24992 2.12081 2.24992 2.16683Z" fill="black" stroke="#1E1E1E" stroke-width="4" stroke-linecap="round" stroke-linejoin="round"/>
</svg>
