<svg width="48" height="48" viewBox="0 0 48 48" fill="none" xmlns="http://www.w3.org/2000/svg">
<path d="M32 18C34.6522 18 37.1957 19.0536 39.0711 20.9289C40.9464 22.8043 42 25.3478 42 28V40H38V28C38 26.4087 37.3679 24.8826 36.2426 23.7574C35.1174 22.6321 33.5913 22 32 22C30.4087 22 28.8826 22.6321 27.7574 23.7574C26.6321 24.8826 26 26.4087 26 28V40H22V28C22 25.3478 23.0536 22.8043 24.9289 20.9289C26.8043 19.0536 29.3478 18 32 18ZM6 40V20H10V40H6ZM10 8C10 9.10457 9.10457 10 8 10C6.89543 10 6 9.10457 6 8C6 6.89543 6.89543 6 8 6C9.10457 6 10 6.89543 10 8Z" stroke="#1E1E1E" stroke-width="4" stroke-linecap="round" stroke-linejoin="round"/>
</svg>
