<?xml version="1.0" encoding="UTF-8"?>
<svg data-bbox="0 0 175 175" xmlns="http://www.w3.org/2000/svg" viewBox="0 0 175 175" height="175" width="175" data-type="ugc">
    <g>
        <path fill="#B2CFFF" d="M175 0v175H0V0h175z"/>
        <path fill="#3D557D" d="M36 96h103l-6.142 61H40.725L36 96Z"/>
        <path fill="#3D557D" d="M82.68 41.04c-2.67 18.423-1.01 32.714-16.333 45.415L43.24 74.385c20.04-6.346 31.027-18.816 39.441-33.346Z"/>
        <path fill="#3D557D" d="M84.8 36.144c-5.65 17.738-6.355 32.108-23.55 42.127L40.43 62.578C61.238 59.602 74.12 49.1 84.8 36.144Z"/>
        <path fill="#3D557D" d="M92.421 41.04c2.67 18.423 1.011 32.714 16.333 45.415l23.109-12.07c-20.04-6.346-31.027-18.816-39.442-33.346Z"/>
        <path fill="#3D557D" d="M90.3 36.144c5.652 17.738 6.357 32.108 23.552 42.127l20.819-15.693c-20.808-2.976-33.69-13.479-44.37-26.434Z"/>
        <path stroke="#B2CFFF" fill="#3D557D" d="M63.263 69.455h48.286c.966 0 1.846.557 2.26 1.43l9.795 20.68c.786 1.658-.424 3.57-2.259 3.57h-69.51c-1.904 0-3.11-2.044-2.189-3.71l11.428-20.68a2.5 2.5 0 0 1 2.189-1.29Z"/>
        <path fill="#3D557D" d="M113.447 44.382c0 15.123-11.63 27.382-25.977 27.382s-25.977-12.26-25.977-27.382C61.493 29.259 73.123 17 87.47 17s25.977 12.26 25.977 27.382z"/>
        <path stroke-width=".5" stroke="#B2CFFF" fill="#3D557D" d="m61.96 54.981-5.501-7.777c10.062-2.376 15.438-6.432 19.467-11.616 2.032-2.615 3.719-5.513 5.49-8.608l.324-.568c1.483-2.596 3.044-5.328 4.936-8.162-1.992 8.407-4.2 14.737-7.769 20.303-3.72 5.8-8.927 10.788-16.946 16.428Z"/>
        <path stroke-width=".5" stroke="#B2CFFF" fill="#3D557D" d="m113.059 54.981 5.502-7.777c-10.062-2.376-15.439-6.432-19.468-11.616-2.032-2.615-3.718-5.513-5.489-8.608l-.324-.568c-1.484-2.596-3.045-5.328-4.936-8.162 1.991 8.407 4.2 14.737 7.768 20.303 3.72 5.8 8.928 10.788 16.947 16.428Z"/>
    </g>
</svg>
