<?xml version="1.0" encoding="UTF-8"?>
<svg data-bbox="0 0 175 175" xmlns="http://www.w3.org/2000/svg" viewBox="0 0 175 175" height="175" width="175" data-type="ugc">
    <g>
        <path fill="#FFAF8C" d="M175 0v175H0V0h175z"/>
        <path fill="#B52360" d="M143 91c-2.13 29.076-26.205 60.935-54.5 61.5-29.798.678-55.078-31.593-54.5-62.5 0-30.1 22.9-57 53-57 30.099 0 56 27.9 56 58Z"/>
        <path fill="#B52360" d="M28.002 30.514c14.642-2.24 22.984-.962 38.14 8.005-11.755 9.166-16.793 16.41-26.003 29.028 2.422-17.554-.61-25.503-12.137-37.033Z"/>
        <path fill="#B52360" d="M28 31c3.6 14.444 5.282 22.836 12.2 36.311-1.987 3.144-2.799 4.953-4.2 8.189-5.905-16.452-6.907-26.576-8-44.5Z"/>
        <path fill="#B52360" d="M147.139 30.514c-14.643-2.24-22.984-.962-38.14 8.005 11.755 9.166 16.793 16.41 26.003 29.028-2.422-17.554.609-25.503 12.137-37.033Z"/>
        <path fill="#B52360" d="M147.141 31c-3.6 14.444-5.282 22.836-12.2 36.311 1.987 3.144 2.798 4.953 4.201 8.189 5.904-16.452 6.906-26.576 7.999-44.5Z"/>
        <path fill="#FFAF8C" d="m66.076 117.237-14.942-3.473c-5.145-14.77-3.393-18.842 6.69-19.948 7.708 5.13 9.594 12.517 8.252 23.421Z"/>
        <path fill="#FFAF8C" d="m110.901 117.237 14.942-3.473c5.144-14.77 3.392-18.842-6.691-19.948-7.708 5.13-9.593 12.517-8.251 23.421Z"/>
        <path fill="#B52360" d="M16.168 138.457c10.144-7.811 16.082-11.74 28.278-15.601l1.508 3.118c-5.331-2.234-14.705 3.281-29.786 12.483Z"/>
        <path fill="#B52360" d="M24.878 150.487C32 139.847 36.374 134.229 46.7 126.679l2.424 2.474c-5.765-.416-12.89 7.8-24.247 21.334Z"/>
        <path fill="#B52360" d="M33.225 158.255c4.827-11.859 7.977-18.244 16.566-27.724l2.875 1.934c-5.731.756-11.05 10.242-19.44 25.79Z"/>
        <path fill="#B52360" d="M158.787 138.457c-10.144-7.811-16.082-11.74-28.278-15.601l-1.508 3.118c5.331-2.234 14.705 3.281 29.786 12.483Z"/>
        <path fill="#B52360" d="M150.247 150.487c-7.122-10.64-11.496-16.258-21.823-23.808L126 129.153c5.765-.416 12.89 7.8 24.247 21.334Z"/>
        <path fill="#B52360" d="M142.312 158c-4.827-11.859-7.977-18.244-16.566-27.724l-2.874 1.934c5.731.756 11.049 10.242 19.44 25.79Z"/>
        <path stroke="#FFAF8C" fill="#B52360" d="m89 150.519 8.486 2.357a5.239 5.239 0 0 1-.612 2.068c-.416.781-1.031 1.5-1.817 2.111a8.997 8.997 0 0 1-2.766 1.436A10.75 10.75 0 0 1 89 159a10.75 10.75 0 0 1-3.29-.509 8.995 8.995 0 0 1-2.767-1.436c-.786-.611-1.4-1.33-1.817-2.111a5.239 5.239 0 0 1-.612-2.068L89 150.519Z"/>
    </g>
</svg>
